<?xml version="1.0" standalone="no"?>
<!DOCTYPE svg PUBLIC "-//W3C//DTD SVG 20010904//EN"
 "http://www.w3.org/TR/2001/REC-SVG-20010904/DTD/svg10.dtd">
<svg version="1.0" xmlns="http://www.w3.org/2000/svg"
 width="1000.000000pt" height="1000.000000pt" viewBox="0 0 1000.000000 1000.000000"
 preserveAspectRatio="xMidYMid meet">
<metadata>
Created by potrace 1.11, written by Peter Selinger 2001-2013
</metadata>
<g transform="translate(0.000000,1000.000000) scale(0.100000,-0.100000)"
fill="#000000" stroke="none">
<path d="M1656 8369 l-1210 -1210 1067 -1067 1066 -1067 -1054 -1053 c-579
-579 -1058 -1059 -1064 -1066 -9 -11 240 -265 1209 -1234 l1220 -1221 1066
1066 1066 1066 1066 -1066 1067 -1067 1222 1223 1221 1222 -1041 1041 c-573
573 -1053 1053 -1066 1067 l-23 26 1065 1065 1065 1065 -1211 1210 c-872 873
-1217 1211 -1232 1211 -16 0 -318 -295 -1077 -1055 l-1055 -1055 -1055 1055
c-821 821 -1061 1055 -1079 1054 -18 0 -321 -298 -1233 -1210z m5648 526 c105
-7 208 -109 235 -233 48 -223 -193 -415 -401 -320 -74 35 -109 67 -143 135
-40 77 -42 183 -6 256 30 62 82 114 137 138 48 22 124 38 138 31 5 -3 23 -6
40 -7z m-4298 -122 c56 -26 119 -87 145 -142 32 -65 32 -188 1 -248 -54 -104
-143 -162 -254 -167 -60 -3 -75 0 -143 30 -67 30 -132 111 -152 192 -12 48 -8
139 7 157 5 7 7 14 4 17 -7 8 42 77 79 111 38 34 81 58 122 67 49 12 149 3
191 -17z m5719 -1248 c104 -50 159 -143 159 -265 0 -60 -5 -84 -24 -120 -57
-106 -162 -170 -270 -165 -97 6 -133 21 -199 85 -131 127 -109 350 43 447 90
58 197 65 291 18z m-7114 -78 c60 -11 144 -70 181 -128 46 -72 55 -193 19
-274 -23 -53 -92 -124 -143 -148 -87 -41 -229 -28 -294 28 -16 14 -31 25 -34
25 -10 0 -72 101 -78 128 -4 15 -7 56 -7 92 0 107 57 201 152 250 23 12 57 24
75 27 18 3 34 6 36 8 4 3 55 -1 93 -8z m7005 -4306 c84 -23 173 -111 195 -195
51 -190 -80 -366 -276 -373 -61 -2 -79 2 -130 28 -182 91 -223 313 -86 461 73
81 185 110 297 79z m-7104 -134 c70 -36 89 -53 123 -112 34 -57 35 -61 42
-138 14 -163 -129 -309 -298 -303 -254 9 -377 318 -197 497 32 32 46 41 108
67 67 28 151 24 222 -11z m5798 -1224 c103 -51 160 -137 165 -248 4 -88 -20
-156 -74 -213 -89 -94 -217 -121 -332 -70 -147 66 -214 238 -149 385 33 76
115 147 195 167 46 11 151 0 195 -21z m-4455 -118 c71 -29 144 -118 161 -195
22 -102 -7 -201 -78 -273 -56 -55 -107 -79 -186 -85 -91 -7 -163 20 -228 83
-18 18 -57 73 -60 85 0 3 -5 14 -10 25 -5 11 -9 56 -9 100 0 72 3 85 33 138
78 135 230 184 377 122z"/>
</g>
</svg>
